<svg xmlns="http://www.w3.org/2000/svg" width="91.544" height="91.544" viewBox="0 0 91.544 91.544"><defs><style>.a{fill:#f6a96c;}.b{fill:#32ddf9;}.c{fill:#ffda2d;}.d{fill:#fdbf00;}.e{fill:#ffbd86;}.f{fill:#84ecf7;}.g{fill:#fed2a4;}.h{fill:#ff637b;}.i{fill:#e63950;}</style></defs><path class="a" d="M356.728,292.634A10.739,10.739,0,0,1,346,281.907a10.729,10.729,0,1,1,21.456,0A10.739,10.739,0,0,1,356.728,292.634Zm0,0" transform="translate(-284.136 -222.546)"/><path class="b" d="M337.782,392a18.631,18.631,0,0,0-10.914,3.551l-3.938,8.9,6.807,9.008h27v-2.682A18.928,18.928,0,0,0,337.782,392Zm0,0" transform="translate(-265.191 -321.911)"/><path class="c" d="M13.589,22.657,5.281,27l1.577-9.524L0,10.961,9.508,9.62,13.589,0l4.18,9.619L27,10.961l-6.679,6.514L21.9,27Zm0,0" transform="translate(0 0)"/><path class="c" d="M201.115,17.45,202.724,27l-8.314-4.345L186.1,27,187.7,17.45,181,10.96l9.333-1.341L194.41,0l4.184,9.619,9.226,1.341Zm0,0" transform="translate(-148.638)"/><path class="d" d="M374.41,22.657,366.1,27l1.577-9.524L361,10.961l9.33-1.341L374.41,0l4.18,9.619L388,10.961l-6.858,6.514L382.718,27Zm0,0" transform="translate(-296.454 0)"/><path class="e" d="M56.728,292.634A10.739,10.739,0,0,1,46,281.907a10.729,10.729,0,1,1,21.456,0A10.739,10.739,0,0,1,56.728,292.634Zm0,0" transform="translate(-37.775 -222.546)"/><path class="f" d="M18.953,392A18.928,18.928,0,0,0,0,410.774v2.682H27l6.653-8.046-3.785-9.858A18.627,18.627,0,0,0,18.953,392Zm0,0" transform="translate(0 -321.911)"/><path class="d" d="M264.314,27,256,22.654V0l4.184,9.619,9.226,1.341-6.7,6.49Zm0,0" transform="translate(-210.228 0)"/><path class="g" d="M206.728,241A10.759,10.759,0,0,0,196,251.728a10.729,10.729,0,1,0,21.456,0A10.759,10.759,0,0,0,206.728,241Zm0,0" transform="translate(-160.956 -197.91)"/><path class="h" d="M188.548,380.774v8.046H151v-8.046a18.774,18.774,0,0,1,37.548,0Zm0,0" transform="translate(-124.002 -297.275)"/><path class="a" d="M256,262.634V241a10.759,10.759,0,0,1,10.728,10.728A10.914,10.914,0,0,1,256,262.634Zm0,0" transform="translate(-210.228 -197.91)"/><path class="i" d="M274.774,380.774v8.046H256V362a18.864,18.864,0,0,1,18.774,18.774Zm0,0" transform="translate(-210.228 -297.275)"/></svg>