<svg xmlns="http://www.w3.org/2000/svg" xmlns:xlink="http://www.w3.org/1999/xlink" width="48.777" height="48.777" viewBox="0 0 48.777 48.777"><defs><style>.a{fill:#2aa4f1;}.b{fill:#fff;}.c{filter:url(#a);}</style><filter id="a" x="0" y="0" width="48.777" height="48.777" filterUnits="userSpaceOnUse"><feOffset dy="2" input="SourceAlpha"/><feGaussianBlur stdDeviation="2" result="b"/><feFlood flood-opacity="0.102"/><feComposite operator="in" in2="b"/><feComposite in="SourceGraphic"/></filter></defs><g transform="translate(6 4)"><g class="c" transform="matrix(1, 0, 0, 1, -6, -4)"><path class="a" d="M18.389,0A18.389,18.389,0,1,1,0,18.389,18.389,18.389,0,0,1,18.389,0Z" transform="translate(6 4)"/></g><path class="b" d="M16.541-9.155a6.645,6.645,0,0,1-1.909.513,3.306,3.306,0,0,0,1.457-1.827,6.525,6.525,0,0,1-2.1.8,3.306,3.306,0,0,0-2.422-1.047A3.313,3.313,0,0,0,8.249-7.4a3.741,3.741,0,0,0,.082.759A9.421,9.421,0,0,1,1.5-10.109a3.29,3.29,0,0,0-.452,1.673,3.312,3.312,0,0,0,1.478,2.76,3.338,3.338,0,0,1-1.5-.421v.041A3.315,3.315,0,0,0,3.683-2.8a3.5,3.5,0,0,1-.872.113,4.177,4.177,0,0,1-.626-.051,3.32,3.32,0,0,0,3.1,2.3A6.638,6.638,0,0,1,1.169.974a6.853,6.853,0,0,1-.8-.041,9.366,9.366,0,0,0,5.09,1.488,9.366,9.366,0,0,0,9.43-9.43c0-.144,0-.287-.01-.431A7.126,7.126,0,0,0,16.541-9.155Z" transform="translate(9.891 23.324)"/></g></svg>