<svg xmlns="http://www.w3.org/2000/svg" xmlns:xlink="http://www.w3.org/1999/xlink" width="49" height="49" viewBox="0 0 49 49"><defs><style>.a{fill:url(#a);}.b{fill:#fff;}.c{filter:url(#b);}</style><linearGradient id="a" x1="0.345" x2="0.699" y2="1" gradientUnits="objectBoundingBox"><stop offset="0" stop-color="#3e66c4"/><stop offset="0.348" stop-color="#8f5693"/><stop offset="0.689" stop-color="#f25144"/><stop offset="1" stop-color="#e6445d"/></linearGradient><filter id="b" x="0" y="0" width="49" height="49" filterUnits="userSpaceOnUse"><feOffset dy="2" input="SourceAlpha"/><feGaussianBlur stdDeviation="2" result="c"/><feFlood flood-opacity="0.102"/><feComposite operator="in" in2="c"/><feComposite in="SourceGraphic"/></filter></defs><g transform="translate(6.143 4)"><g class="c" transform="matrix(1, 0, 0, 1, -6.14, -4)"><circle class="a" cx="18.5" cy="18.5" r="18.5" transform="translate(6 4)"/></g><g transform="translate(7.857 8)"><path class="b" d="M15.25,0H5.812A5.819,5.819,0,0,0,0,5.812V15.25a5.819,5.819,0,0,0,5.812,5.812H15.25a5.819,5.819,0,0,0,5.812-5.812V5.812A5.819,5.819,0,0,0,15.25,0Zm3.944,15.25a3.948,3.948,0,0,1-3.944,3.944H5.812A3.948,3.948,0,0,1,1.869,15.25V5.812A3.948,3.948,0,0,1,5.812,1.869H15.25a3.948,3.948,0,0,1,3.944,3.944V15.25Z"/><path class="b" d="M46.4,40.97A5.427,5.427,0,1,0,51.822,46.4,5.433,5.433,0,0,0,46.4,40.97Zm0,8.985A3.558,3.558,0,1,1,49.954,46.4,3.562,3.562,0,0,1,46.4,49.955Z" transform="translate(-35.864 -35.866)"/><path class="b" d="M120.291,28.251a1.37,1.37,0,1,0,.969.4A1.376,1.376,0,0,0,120.291,28.251Z" transform="translate(-104.106 -24.731)"/></g></g></svg>