<svg xmlns="http://www.w3.org/2000/svg" width="106.701" height="94.975" viewBox="0 0 106.701 94.975"><defs><style>.a{fill:#57a68c;opacity:0.33;}.b,.c{fill:#097a67;}.c{opacity:0.61;}.d{fill:#dc8758;}.e{fill:#ffcebf;}.f{fill:#ffb09e;}.g{fill:#99e6fc;}</style></defs><g transform="translate(0 -27.315)"><circle class="a" cx="31.639" cy="31.639" r="31.639" transform="translate(32.16 27.315)"/><g transform="translate(62.162 70.382)"><path class="b" d="M291.21,249.246a1.61,1.61,0,0,1-1.61-1.61v-18.07a1.61,1.61,0,1,1,3.22,0v18.07A1.61,1.61,0,0,1,291.21,249.246Z" transform="translate(-289.6 -227.957)"/></g><path class="c" d="M249.2,134.536l-6.4-4.737a16.525,16.525,0,0,1,.087-26.628l5.452-3.98a.746.746,0,0,1,1.164.424,14.354,14.354,0,0,1-.3,7.537l3.092,5.714Z" transform="translate(-185.424 -56.335)"/><path class="b" d="M287.795,75.432l-3.6,6.606a7.62,7.62,0,0,1-1.131,1.563l-5.785,6.171a11.731,11.731,0,0,0-2.631,11.547l4.394,13.957,10.026-10.369A22.732,22.732,0,0,0,290.708,75.2,1.745,1.745,0,0,0,287.795,75.432Z" transform="translate(-215.267 -37.074)"/><path class="d" d="M212.839,302.91l14.5-7.95a24.84,24.84,0,0,1,28.377,3.153l5.914,5.217v6l-43.794,13.518-4.993-13.221Z" transform="translate(-167.154 -207.793)"/><g transform="translate(9.548 92.095)"><path class="e" d="M141.188,333.114a4.844,4.844,0,0,0-6-2.537l-32.648,11.481.024-.024a5.772,5.772,0,0,0-4.08-9.854H78.608a10.465,10.465,0,0,0-7.4-3.065H44.484v25.768l10.83-.275.947.816a16.041,16.041,0,0,0,10.468,3.885H96.756a16.044,16.044,0,0,0,7.377-1.8l34.887-18.067a4.838,4.838,0,0,0,2.168-6.332Z" transform="translate(-44.484 -329.115)"/></g><path class="e" d="M202.328,354.738h16.6a5.773,5.773,0,1,0,0-11.545H197.883l1.176,11.545h3.27Z" transform="translate(-155.408 -248.076)"/><path class="f" d="M223.232,363.058h-16.6a3.269,3.269,0,0,0-3.27,3.27v.867a.388.388,0,0,0,.388.388h19.484a5.775,5.775,0,0,0,5.312-8.035A5.773,5.773,0,0,1,223.232,363.058Z" transform="translate(-159.709 -260.919)"/><path class="f" d="M140.619,333.5l-34.887,18.067a16.045,16.045,0,0,1-7.377,1.8H68.328a16.04,16.04,0,0,1-10.468-3.885,3.238,3.238,0,0,0-2.2-.784l-9.581.243V329.116h-1.6v25.768l10.83-.275.947.816a16.04,16.04,0,0,0,10.468,3.885H96.756a16.043,16.043,0,0,0,7.377-1.8l34.887-18.067a4.845,4.845,0,0,0,2.617-4.3,4.781,4.781,0,0,0-.434-1.994,4.908,4.908,0,0,1-.584.35Z" transform="translate(-34.936 -237.02)"/><g transform="translate(0 89.822)"><path class="g" d="M15.137,321.414v24.47a2.827,2.827,0,0,1-.03.408,2.888,2.888,0,0,1-2.859,2.481H1.506A1.506,1.506,0,0,1,0,347.267V320.031a1.506,1.506,0,0,1,1.506-1.506H12.248a2.89,2.89,0,0,1,2.889,2.889Z" transform="translate(0 -318.525)"/></g></g></svg>