<svg xmlns="http://www.w3.org/2000/svg" width="88.092" height="88.167" viewBox="0 0 88.092 88.167"><defs><style>.a{fill:#e9e9e9;}.b{fill:#239172;}.c{fill:#2ab793;}.d{fill:#c4c4c4;}.e{fill:#3f3f3f;}.f{fill:#4a4a56;}.g{fill:#2b2b2b;}</style></defs><path class="a" d="M46.274,40h60.753a6.093,6.093,0,0,1,6.075,6.075v60.753a6.093,6.093,0,0,1-6.075,6.075H46.275a6.093,6.093,0,0,1-6.075-6.075V46.075A6.093,6.093,0,0,1,46.275,40Zm0,0" transform="translate(-32.605 -32.406)"/><path class="b" d="M60.952,30.376A30.376,30.376,0,1,1,30.575,0,30.376,30.376,0,0,1,60.952,30.376Zm0,0" transform="translate(-0.199)"/><path class="c" d="M80.8,56.3A24.3,24.3,0,1,1,56.5,32,24.3,24.3,0,0,1,80.8,56.3Zm0,0" transform="translate(-26.124 -25.925)"/><path class="a" d="M72.2,128.559a22.617,22.617,0,0,0,32.047,1.367l1.367-1.367a22.617,22.617,0,0,0-32.047-1.367Zm0,0" transform="translate(-58.53 -98.183)"/><g transform="translate(12.151 13.669)"><path class="d" d="M328.2,72h13.669v3.038H328.2Zm0,0" transform="translate(-278.078 -72)"/><path class="d" d="M344.2,112h10.632v3.038H344.2Zm0,0" transform="translate(-291.04 -104.406)"/><path class="d" d="M344.2,152h10.632v3.038H344.2Zm0,0" transform="translate(-291.04 -136.812)"/><path class="d" d="M344.2,192h10.632v3.038H344.2Zm0,0" transform="translate(-291.04 -169.218)"/><path class="d" d="M344.2,232h10.632v3.038H344.2Zm0,0" transform="translate(-291.04 -201.624)"/><path class="d" d="M352.2,272h9.113v3.038H352.2Zm0,0" transform="translate(-297.522 -234.03)"/><path class="d" d="M64.2,344h41.008v3.038H64.2Zm0,0" transform="translate(-64.199 -292.36)"/><path class="d" d="M64.2,376h47.083v3.038H64.2Zm0,0" transform="translate(-64.199 -318.285)"/></g><path class="b" d="M104.2,224h21.263v3.038H104.2Zm0,0" transform="translate(-84.454 -181.473)"/><path class="b" d="M104.2,80h21.263v3.038H104.2Zm0,0" transform="translate(-84.454 -64.812)"/><path class="e" d="M268.755,256l12.151,13.669h1.823a3,3,0,0,1,2.126.911l15.8,15.8a5.37,5.37,0,0,1-3.8,9.113,5.993,5.993,0,0,1-3.8-1.519l-15.8-15.8a3,3,0,0,1-.911-2.126v-1.823L264.2,260.556" transform="translate(-214.078 -207.398)"/><path class="f" d="M145.312,140.556A4.556,4.556,0,1,1,140.755,136,4.557,4.557,0,0,1,145.312,140.556Zm0,0" transform="translate(-110.379 -110.18)"/><path class="g" d="M354.019,348.5a5.993,5.993,0,0,0-1.519-3.8l-15.8-15.8a3,3,0,0,0-2.126-.911h-1.823l-4.556,4.556v1.823a3,3,0,0,0,.911,2.126l15.8,15.8a5.318,5.318,0,0,0,7.594,0,5.993,5.993,0,0,0,1.519-3.8Zm0,0" transform="translate(-265.927 -265.728)"/></svg>